<?xml version="1.0" encoding="UTF-8"?>
<svg id="Camada_1" xmlns="http://www.w3.org/2000/svg" version="1.1" viewBox="0 0 32 32">
  <!-- Generator: Adobe Illustrator 29.5.1, SVG Export Plug-In . SVG Version: 2.1.0 Build 141)  -->
  <defs>
    <style>
      .st0 {
        fill: #fff;
      }

      .st1 {
        fill: #ee690b;
      }

      .st2 {
        display: none;
      }
    </style>
  </defs>
  <g id="Phone" class="st2">
    <path class="st1" d="M27.5,22.27c1.79,1.48,4.36,3.45,2.04,5.68-1.96,1.89-4.13,3.38-6.95,3.58h-1.58c-5.45-.6-9.9-4.55-13.32-8.55C3.43,17.98-1.14,10.17,3.45,3.92c.61-.83,2.97-3.1,3.91-3.38,1.49-.44,2.58.98,3.35,2.05,1.05,1.48,2.82,4.12,2.23,5.97-.75,2.34-4.22,2.51-3.82,5.39.36,2.6,4.97,7.77,7.27,8.99,2.83,1.51,3.33-.37,5.25-1.84,2.24-1.73,4.05-.32,5.85,1.17h0Z"/>
  </g>
  <g id="Email" class="st2">
    <g>
      <path class="st1" d="M0,7.19c.11-.23.12-.51.24-.73.03-.06-.02-.1.11-.08l9.59,9.65L.34,25.62c-.12.02-.08-.02-.11-.08-.06-.12-.22-.61-.24-.73V7.19h0Z"/>
      <path class="st1" d="M32,24.81c-.11.23-.12.51-.24.73-.03.06.02.1-.11.08l-9.59-9.65,9.59-9.6c.12-.02.08.02.11.08.06.12.22.61.24.73v17.62h0Z"/>
      <path class="st1" d="M2.49,4.77l26.86-.02c.16.02,1.01.14.97.34l-13.62,13.63c-.36.32-1.02.32-1.38,0L1.69,5.03s.8-.26.8-.26Z"/>
      <path class="st1" d="M11.23,17.38c1.21.85,2.63,3.17,4.14,3.4,2.63.41,3.62-2.07,5.4-3.4l9.54,9.59c-.03.13-.86.29-1.03.29H2.72c-.21-.01-.81-.11-.96-.22-.06-.05-.1-.09-.03-.16l9.51-9.49h-.01Z"/>
    </g>
  </g>
  <g id="Profile" class="st2">
    <path class="st1" d="M16.94,0l3.04.49c6.21,1.58,11.06,6.98,11.89,13.36.05.4.04.83.13,1.21v1.88c-.1.38-.08.81-.13,1.21-.83,6.39-5.66,11.77-11.89,13.36l-3.04.49h-1.87l-3.04-.49C5.82,29.93.97,24.53.14,18.15c-.05-.4-.04-.83-.13-1.21.03-.62-.03-1.25,0-1.88C.46,7.04,7.07.47,15.07,0h1.87ZM15.31,4.83c-3.37.34-5.42,4.02-4.24,7.14,1.56,4.13,7.33,4.61,9.51.76s-.86-8.35-5.27-7.9ZM12.56,17.96c-2.39.2-4.49,1.94-4.91,4.34-.31,1.77.23,2.42,1.59,3.38,4.05,2.84,9.43,2.84,13.5.03,1.47-1.02,1.99-1.78,1.56-3.65-.54-2.32-2.6-3.95-4.95-4.11-1.89-.13-4.91-.14-6.79.02h0Z"/>
    <path class="st0" d="M15.07,0C7.07.47.46,7.04,0,15.06V0s15.06,0,15.06,0Z"/>
    <path class="st0" d="M15.07,32H0v-15.06c.09.38.08.81.13,1.21.82,6.38,5.67,11.78,11.89,13.36,0,0,3.04.49,3.04.49Z"/>
    <path class="st0" d="M32,16.94v15.06h-15.06l3.04-.49c6.23-1.59,11.05-6.97,11.89-13.36.05-.4.04-.83.13-1.21Z"/>
    <path class="st0" d="M12.56,17.96c1.88-.15,4.9-.15,6.79-.02,2.35.16,4.41,1.79,4.95,4.11.43,1.87-.09,2.63-1.56,3.65-4.07,2.82-9.44,2.81-13.5-.03-1.36-.95-1.9-1.61-1.59-3.38.42-2.4,2.51-4.15,4.91-4.34h0Z"/>
    <path class="st0" d="M15.31,4.83c4.41-.45,7.47,4.01,5.27,7.9s-7.95,3.37-9.51-.76c-1.18-3.12.87-6.8,4.24-7.14Z"/>
  </g>
  <g id="light">
    <g>
      <path class="st1" d="M15.54,31.95c-1.15-.13-2.5-1.32-2.5-2.53v-1.22h7.5v1.22c0,1.21-1.35,2.4-2.5,2.53-.55.06-1.95.06-2.5,0Z"/>
      <path class="st1" d="M17.04,0c.33.18.62.38.68.78.19,1.19-.13,2.82,0,4.05-.2,1.12-1.68,1.12-1.88,0,.14-1.24-.18-2.87,0-4.05.06-.41.36-.6.68-.78h.52Z"/>
      <path class="st1" d="M.79,16.23v-.5c.18-.33.38-.62.79-.68,1.19-.19,2.82.13,4.06,0,1.12.2,1.12,1.68,0,1.88-1.24-.14-2.87.18-4.06,0-.41-.06-.6-.36-.79-.68v-.02Z"/>
      <path class="st1" d="M32.79,15.73v.5c-.18.33-.38.62-.79.68-1.19.19-2.82-.13-4.06,0-1.12-.2-1.12-1.68,0-1.88,1.24.14,2.87-.18,4.06,0,.41.06.6.36.79.68v.02Z"/>
      <path class="st1" d="M16.34,7.57c6.52-.37,10.96,6.56,7.92,12.34-1.02,1.94-2.49,2.43-2.78,4.9-.08.66.15,1.27-.73,1.51l-8.01-.03c-.86-.32-.58-1.28-.72-2.03-.27-1.52-.99-1.98-1.86-3.08-4.25-5.39-.69-13.23,6.17-13.62h0ZM17.46,11.57c-.43-.43-1.32-.26-1.87-.13-.84.2-1.76.77-2.33,1.42s-1.69,2.51-.42,2.98c1.21.45,1.28-1.27,1.99-1.92.78-.71,1.27-.58,2.17-.76.7-.15.97-1.08.46-1.59Z"/>
      <path class="st1" d="M6.09,4.44c.3-.03.57.13.79.3.53.41,2.22,2.09,2.62,2.63.36.48.41,1.11-.15,1.46-.44.27-.8.15-1.18-.13-.51-.38-2.27-2.14-2.66-2.65-.47-.64-.25-1.53.57-1.6h0Z"/>
      <path class="st1" d="M27.34,4.44c.53-.04,1.04.47,1,1-.02.22-.15.43-.27.61-.38.51-2.14,2.27-2.66,2.65-.38.28-.74.4-1.18.13-.56-.34-.51-.98-.15-1.46.41-.55,2.03-2.16,2.59-2.6.19-.15.42-.31.67-.33Z"/>
    </g>
  </g>
</svg>